<svg xmlns="http://www.w3.org/2000/svg" viewBox="0 0 300 25"><defs><style>.cls-1{fill:#fcd8a2;}</style></defs><title>tree line</title><g id="Layer_2" data-name="Layer 2"><g id="Layer_1-2" data-name="Layer 1"><path class="cls-1" d="M297.58,8.39c0,.15.08.27.18.27h.89a20.45,20.45,0,0,0-1.48,4.75c-.47-.68-1-1.38-1.49-2.08-1.3,1.76-2.43,3.44-3.4,5.07a18.39,18.39,0,0,0-1-2.3h1c.1,0,.19-.12.19-.26s0-.07,0-.09A25.58,25.58,0,0,0,289.84,6a25.52,25.52,0,0,0-2.61,7.76.24.24,0,0,0,0,.09c0,.14.09.26.19.26h1a18.57,18.57,0,0,0-1.75,5.38,17,17,0,0,0-2.36-3.87H286a.32.32,0,0,0,.34-.28.23.23,0,0,0,0-.11c-.51-2.44-2-5.32-4.6-8.55a23.36,23.36,0,0,0-4.46,8A18.1,18.1,0,0,0,275.83,11h1c.11,0,.19-.12.19-.26a.28.28,0,0,0,0-.09,25.58,25.58,0,0,0-2.62-7.76,25.8,25.8,0,0,0-2.61,7.76.28.28,0,0,0,0,.09c0,.14.08.26.19.26h1a16.42,16.42,0,0,0-.85,2c-1.52-4-3.41-8.58-4.79-11.63A131.41,131.41,0,0,0,261,16.86a45.85,45.85,0,0,0-3.91-7,51.4,51.4,0,0,0-3.18,5.46A18.54,18.54,0,0,0,252,11.62h1.51a.31.31,0,0,0,.3-.3.36.36,0,0,0,0-.11,24.9,24.9,0,0,0-4.09-9,24.85,24.85,0,0,0-4.08,9,.36.36,0,0,0,0,.11.31.31,0,0,0,.3.3h1.51a17.55,17.55,0,0,0-3,7.83.19.19,0,0,0,0,.08.29.29,0,0,0,.3.3h1.39c-.29.64-.86,1.92-1.42,3.49a26.87,26.87,0,0,0-2.37-4.91h1.87a.39.39,0,0,0,.38-.41.32.32,0,0,0,0-.14c-.56-3.53-2.26-7.69-5.08-12.36-2.81,4.67-4.51,8.83-5.07,12.36a.32.32,0,0,0,0,.14.39.39,0,0,0,.37.41h1.88A28.78,28.78,0,0,0,235.15,21c-.82-4.1-3.27-8.93-7.32-14.36a44.09,44.09,0,0,0-6.54,11.6,127.69,127.69,0,0,0-6.7-16.94c-2.42,5.34-6.4,15.33-7.2,18.86a.26.26,0,0,0,0,.15.49.49,0,0,0,.53.41h2.91A24.46,24.46,0,0,0,208,25h92V.32a28.88,28.88,0,0,0-2.41,8S297.58,8.36,297.58,8.39Z"/><path class="cls-1" d="M185.67,25a28.66,28.66,0,0,0-4-7.25h2.71a.51.51,0,0,0,.54-.48.33.33,0,0,0,0-.17c-.81-4.12-3.27-9-7.33-14.43a43.6,43.6,0,0,0-6.65,11.92,35.14,35.14,0,0,0-2.51-4.38,24.85,24.85,0,0,0-4.08,9,.36.36,0,0,0,0,.11.3.3,0,0,0,.3.3h1.51A18.43,18.43,0,0,0,163.53,25Z"/><path class="cls-1" d="M161,25c-.25-.36-.48-.67-.67-.91H163a.51.51,0,0,0,.54-.48.39.39,0,0,0,0-.18c-.81-4.12-3.27-9-7.33-14.43a53.58,53.58,0,0,0-4.85,7.65,18.78,18.78,0,0,0-1.69-3h1.51a.3.3,0,0,0,.3-.3.2.2,0,0,0,0-.11,24.85,24.85,0,0,0-4.08-9,24.85,24.85,0,0,0-4.08,9,.36.36,0,0,0,0,.11.3.3,0,0,0,.3.3h1.51a18.37,18.37,0,0,0-2.51,5.31,133.46,133.46,0,0,0-5.95-14.6c-1.72,3.78-4.21,9.89-5.8,14.39a47.9,47.9,0,0,0-6-10,54.4,54.4,0,0,0-5,7.87A17.94,17.94,0,0,0,117,9.28h1.51a.3.3,0,0,0,.3-.3.36.36,0,0,0,0-.1,24.79,24.79,0,0,0-4-8.88h-.17a24.79,24.79,0,0,0-4,8.88.36.36,0,0,0,0,.1.3.3,0,0,0,.3.3h1.51a18.22,18.22,0,0,0-2.69,6.1c-.93-1.52-2-3.09-3.19-4.71a53.72,53.72,0,0,0-5,8,16.41,16.41,0,0,0-1.2-2h1.51a.3.3,0,0,0,.3-.3.36.36,0,0,0,0-.11,24.85,24.85,0,0,0-4.08-9,25.15,25.15,0,0,0-4.07,8.92,133,133,0,0,0-6-14.8c-2.42,5.34-6.4,15.33-7.2,18.86a.37.37,0,0,0,0,.15.48.48,0,0,0,.52.41h2.91a25.41,25.41,0,0,0-2.49,3.62A28.55,28.55,0,0,0,78,18.09h2.72a.51.51,0,0,0,.53-.48.57.57,0,0,0,0-.18c-.81-4.12-3.27-9-7.34-14.43a48.24,48.24,0,0,0-6,10.07,18.59,18.59,0,0,0-1.57-2.79h1.51a.29.29,0,0,0,.3-.3.36.36,0,0,0,0-.1A25,25,0,0,0,64,.87a25,25,0,0,0-4.08,9,.18.18,0,0,0,0,.1.29.29,0,0,0,.29.3h1.51a18.43,18.43,0,0,0-2.77,6.41A58.65,58.65,0,0,0,55.17,11,53,53,0,0,0,50,19.34a18.36,18.36,0,0,0-2.68-6.06h1.51a.29.29,0,0,0,.3-.3.36.36,0,0,0,0-.1,25,25,0,0,0-4.08-9,25,25,0,0,0-4.08,9,.18.18,0,0,0,0,.1.29.29,0,0,0,.29.3h1.51A18.53,18.53,0,0,0,40.12,19a132.45,132.45,0,0,0-6.2-15.32C32.91,5.9,31.62,9,30.41,12a18.94,18.94,0,0,0-1.27-3.24h1c.11,0,.19-.11.19-.25a.31.31,0,0,0,0-.1A25.76,25.76,0,0,0,27.67.65a26,26,0,0,0-2.61,7.76.31.31,0,0,0,0,.1c0,.14.08.25.19.25h1a18.26,18.26,0,0,0-1.92,6.75.22.22,0,0,0,0,.08c0,.14.09.26.19.26h.9a39.51,39.51,0,0,0-1.26,4.43,16.81,16.81,0,0,0-2.68-4.67h1.7a.32.32,0,0,0,.34-.28.43.43,0,0,0,0-.11c-.51-2.44-2.05-5.32-4.6-8.55-2.55,3.23-4.1,6.11-4.61,8.55a.43.43,0,0,0,0,.11.32.32,0,0,0,.34.28h1.7a16.94,16.94,0,0,0-2.37,3.87,18.57,18.57,0,0,0-1.75-5.38h1c.11,0,.19-.12.19-.26a.25.25,0,0,0,0-.09A25.58,25.58,0,0,0,10.67,6a25.8,25.8,0,0,0-2.61,7.76.25.25,0,0,0,0,.09c0,.14.08.26.19.26h1a17,17,0,0,0-1,2.3c-1-1.63-2.1-3.31-3.41-5.07-.68.92-1.3,1.82-1.9,2.7A20.3,20.3,0,0,0,1.35,8.66h.89c.1,0,.18-.12.18-.27s0-.07,0-.1A28.88,28.88,0,0,0,0,.32V25Z"/><path class="cls-1" d="M192.83,12.33C189.33,17,187,21.28,186,25h21.39a38,38,0,0,0-2.07-5.5h1.4a.29.29,0,0,0,.3-.3.28.28,0,0,0,0-.09,17.72,17.72,0,0,0-3-7.83h1.51a.3.3,0,0,0,.3-.3.36.36,0,0,0,0-.1,25,25,0,0,0-4.09-9,25,25,0,0,0-4.08,9,.36.36,0,0,0,0,.1.3.3,0,0,0,.3.3h1.51A17.92,17.92,0,0,0,196.57,18,58.15,58.15,0,0,0,192.83,12.33Z"/></g></g></svg>